# xmcd CD database file
# Copyright (C) 1993-1998 Ti Kan
#
# Track frame offsets:
#	150
#	15900
#	43085
#	59762
#	72300
#	99525
#	120900
#	154275
#	177460
#
# Disc length: 2575 seconds
#
# Revision: 1
# Processed by: cddbd v1.4b41PL1 Copyright (c) Steve Scherf et al.
# Submitted via: CDValet v3.01 - Copyright (c) 1997 Greg Leichner
#
DISCID=760a0d09
DTITLE=Chain - History Of Chain, The    -Disk--2-
DYEAR=1900
DGENRE=
TTITLE0=Judgement
TTITLE1=Blow In D
TTITLE2=Mr. President
TTITLE3=Leaving
TTITLE4=I Was Born
TTITLE5=Two Of A Kind
TTITLE6=Feelings
TTITLE7=Forever
TTITLE8=I'm Gonna Miss You Babe 
EXTD=
EXTT0=
EXTT1=
EXTT2=
EXTT3=
EXTT4=
EXTT5=
EXTT6=
EXTT7=
EXTT8=
PLAYORDER=
